<?xml version="1.0" encoding="utf-8"?>
<!-- Generator: Adobe Illustrator 21.1.0, SVG Export Plug-In . SVG Version: 6.00 Build 0)  -->
<svg version="1.1" id="Layer_1" xmlns="http://www.w3.org/2000/svg" xmlns:xlink="http://www.w3.org/1999/xlink" x="0px" y="0px" width="143" height="43"
	 viewBox="0 0 362 535.3" style="enable-background:new 0 0 362 535.3;" xml:space="preserve">
<style type="text/css">
	.st0{fill:#EA501F;}
	.st1{fill:#FFFFFF;}
</style>
<path class="st0" d="M11.2,482.1c-1.6-1.1-2.1-3.3-1-5c1.1-1.6,3.3-2.1,5-1c1,0.7,2.1,1.4,3.3,2.1c8.2,5,15.9,7.5,22.2,7.5
	c5.7,0,10.4-2.2,13.3-6.5v0c0.2-0.3,0.4-0.5,0.4-0.7c0.8-1.4,1.5-2.8,1.9-4.2c0.8-2.9,0.7-5.9-0.5-8.6c-1.2-2.9-3.7-5.6-7.5-7.9l0,0
	c-2.5-1.5-5.7-2.9-9.5-4c-9.7-2.7-16.8-6.6-20.7-11.7c-4.2-5.7-4.5-12.5,0-20.8c3-5.5,9.1-8.9,16.9-9.5c6.7-0.5,14.8,1.1,23,5.3
	c1.8,0.9,2.5,3.1,1.6,4.8c-0.9,1.8-3.1,2.5-4.8,1.6c-7-3.6-13.7-4.9-19.2-4.5c-5.3,0.4-9.4,2.5-11.1,5.8c-3,5.5-3,9.8-0.5,13.1
	c2.8,3.8,8.7,6.8,16.8,9.1c4.4,1.2,8.1,2.9,11.2,4.8h0c5.1,3.1,8.5,7,10.3,11.2c1.9,4.3,2.1,9,0.8,13.4c-0.6,2-1.5,4.1-2.7,6
	c-0.3,0.4-0.5,0.8-0.6,1l0,0c-4.3,6.4-11.1,9.6-19.3,9.6c-7.6,0-16.5-2.8-25.9-8.5C13.7,483.7,12.5,483,11.2,482.1z"/>
<path class="st0" d="M75.1,415.2c0-1.9,1.6-3.4,3.6-3.4c2,0,3.6,1.5,3.6,3.4v74.3c0,1.9-1.6,3.4-3.6,3.4c-2,0-3.6-1.5-3.6-3.4V415.2
	z"/>
<path class="st0" d="M82.5,461.5c-1.3,1.5-3.5,1.8-5.1,0.5c-1.5-1.3-1.8-3.5-0.5-5.1c5.5-6.7,11.7-10.8,17.8-12.6
	c4.4-1.3,8.7-1.4,12.4-0.4c3.9,1.1,7.3,3.3,9.7,6.7c2.3,3.2,3.6,7.3,3.6,12.2v26.6c0,2-1.6,3.6-3.6,3.6c-2,0-3.6-1.6-3.6-3.6v-26.6
	c0-3.4-0.8-6.1-2.2-8.1c-1.4-1.9-3.3-3.2-5.7-3.9c-2.5-0.7-5.4-0.6-8.5,0.3C92,452.6,87,456,82.5,461.5z"/>
<path class="st0" d="M155.7,443.2c6.9,0,13.1,2.8,17.6,7.3l0,0c4.5,4.5,7.3,10.7,7.3,17.6c0,6.9-2.8,13.1-7.3,17.6
	c-4.5,4.5-10.7,7.3-17.6,7.3s-13.1-2.8-17.6-7.3v0c-4.5-4.5-7.3-10.7-7.3-17.6c0-6.9,2.8-13.1,7.3-17.6v0
	C142.6,446,148.9,443.2,155.7,443.2L155.7,443.2z M168.3,455.5c-3.2-3.2-7.7-5.2-12.6-5.2c-4.9,0-9.3,2-12.6,5.2l0,0
	c-3.2,3.2-5.2,7.7-5.2,12.6c0,4.9,2,9.4,5.2,12.6l0,0c3.2,3.2,7.7,5.2,12.6,5.2s9.3-2,12.6-5.2c3.2-3.2,5.2-7.7,5.2-12.6
	C173.5,463.2,171.5,458.7,168.3,455.5z"/>
<path class="st0" d="M190.8,446.8c0-2,1.6-3.6,3.6-3.6c2,0,3.6,1.6,3.6,3.6v4.5c0.3-0.3,0.5-0.6,0.8-0.8v0
	c4.5-4.5,10.7-7.3,17.6-7.3c6.9,0,13.1,2.8,17.6,7.3l0,0c4.5,4.5,7.3,10.7,7.3,17.6c0,6.9-2.8,13.1-7.3,17.6
	c-4.5,4.5-10.7,7.3-17.6,7.3s-13.1-2.8-17.6-7.3v0c-0.3-0.3-0.5-0.6-0.8-0.8v32.7c0,2-1.6,3.6-3.6,3.6c-2,0-3.6-1.6-3.6-3.6V446.8
	L190.8,446.8z M228.9,455.5c-3.2-3.2-7.7-5.2-12.6-5.2c-4.9,0-9.3,2-12.6,5.2l0,0c-3.2,3.2-5.2,7.7-5.2,12.6c0,4.9,2,9.4,5.2,12.6
	l0,0c3.2,3.2,7.7,5.2,12.6,5.2c4.9,0,9.3-2,12.6-5.2c3.2-3.2,5.2-7.7,5.2-12.6C234.1,463.2,232.1,458.7,228.9,455.5z"/>
<path class="st0" d="M275.1,443.2c6.1,0,11.7,2.4,15.8,6.6c3.4,3.4,4.8,6.8,6,10.4c3.1,10.1-2.8,9.7-4.6,9.7h-33.1
	c0.3,2.4,0.9,4.6,1.6,6.6c1.3,3.1,3.2,5.4,5.6,7c2.5,1.6,5.7,2.4,9.4,2.4c4,0,8.7-1.1,13.9-3.3c1.8-0.8,3.9,0.1,4.7,1.9
	s-0.1,3.9-1.9,4.7c-6,2.5-11.6,3.7-16.6,3.8c-5.1,0.1-9.6-1.1-13.3-3.5c-3.7-2.4-6.9-5.7-8.4-10.3c-3.4-10.1-3.5-20.1,5.1-29.4
	C263.3,445.5,269,443.2,275.1,443.2L275.1,443.2z M285.9,454.9c-2.9-2.8-6.7-4.5-10.8-4.5c-4.1,0-7.9,1.7-10.8,4.5
	c-2.1,2.1-3.8,4.7-4.7,7.7h31.1C289.6,459.6,288,457,285.9,454.9z"/>
<path class="st0" d="M329.7,443.2c6.1,0,11.7,2.4,15.8,6.6c3.4,3.4,4.8,6.8,6,10.4c3.1,10.1-2.8,9.7-4.6,9.7h-33.1
	c0.3,2.4,0.9,4.6,1.6,6.6c1.3,3.1,3.2,5.4,5.6,7c2.5,1.6,5.7,2.4,9.4,2.4c4,0,8.7-1.1,13.9-3.3c1.8-0.8,3.9,0.1,4.7,1.9
	c0.8,1.8-0.1,3.9-1.9,4.7c-6,2.5-11.6,3.7-16.6,3.8c-5.1,0.1-9.6-1.1-13.3-3.5c-3.7-2.4-6.9-5.7-8.4-10.3
	c-3.4-10.1-3.5-20.1,5.1-29.4C317.9,445.5,323.6,443.2,329.7,443.2L329.7,443.2z M340.5,454.9c-2.9-2.8-6.7-4.5-10.8-4.5
	c-4.1,0-7.9,1.7-10.8,4.5c-2.1,2.1-3.8,4.7-4.7,7.7h31.1C344.2,459.6,342.6,457,340.5,454.9z"/>
<path class="st0" d="M36.5,118.1h75.3c2.3-25.5,9.4-48.4,19.6-66.1c13.5-23.4,32.7-37.8,54.4-37.8c21.7,0,40.8,14.5,54.4,37.8
	c10.2,17.6,17.3,40.6,19.6,66.1H335c8.9,0,16.9,7.3,16.2,16.2L336.1,345c-1.9,26.4-18.5,41.5-42.6,41.5H78.1
	c-26.8,0-41-18.7-42.6-41.5L20.3,134.4C19.7,125.5,27.6,118.1,36.5,118.1L36.5,118.1z M130.6,118.1h110.2
	c-2.2-22.1-8.3-41.7-17-56.7C213.8,43.9,200.2,33,185.8,33c-14.5,0-28,10.9-38.2,28.5C138.9,76.4,132.9,96.1,130.6,118.1z"/>
<path class="st1" d="M131.1,312.6c-3.5-2.4-4.4-7.1-2-10.6c2.4-3.5,7.1-4.4,10.6-2c2.2,1.5,4.5,3,7,4.5c17.6,10.7,33.8,16,47.3,16
	c12.2,0,22.1-4.6,28.4-13.9v0c0.4-0.7,0.8-1.1,0.9-1.4c1.8-2.9,3.1-6,4-9c1.8-6.2,1.5-12.6-1-18.4c-2.7-6.1-7.9-12-16-16.9l0,0
	c-5.4-3.3-12.1-6.2-20.2-8.4c-20.6-5.8-35.8-14-44-25c-9-12.1-9.7-26.7-0.1-44.4c6.4-11.7,19.5-19,36.1-20.3
	c14.3-1.1,31.5,2.3,49,11.2c3.8,1.9,5.3,6.5,3.3,10.3s-6.5,5.3-10.3,3.3c-14.9-7.6-29.1-10.5-40.9-9.6c-11.3,0.9-19.9,5.3-23.7,12.3
	c-6.4,11.7-6.3,20.9-1.1,27.9c6,8.1,18.5,14.4,35.9,19.3c9.4,2.7,17.4,6.1,24,10.1h0c10.9,6.6,18.2,14.9,22.1,23.9
	c4,9.3,4.5,19.1,1.8,28.7c-1.2,4.3-3.1,8.6-5.7,12.8c-0.6,0.9-1,1.6-1.3,2.1l0,0c-9.3,13.7-23.6,20.5-41,20.6
	c-16.3,0-35.3-6-55.3-18.2C136.4,316.1,133.8,314.5,131.1,312.6z"/>
</svg>
